<?xml version="1.0" encoding="UTF-8"?>
<svg xmlns="http://www.w3.org/2000/svg" xmlns:xlink="http://www.w3.org/1999/xlink" width="24pt" height="24pt" viewBox="0 0 24 24" version="1.1">
<g id="surface1">
<path style=" stroke:none;fill-rule:nonzero;fill:rgb(9.803922%,66.666667%,97.254902%);fill-opacity:1;" d="M 12.507812 20.007812 L 7.972656 20.007812 C 7.890625 20.007812 7.804688 19.972656 7.742188 19.914062 L 3.816406 15.984375 C 3.425781 15.59375 3.425781 14.960938 3.816406 14.574219 L 10.5 7.894531 C 10.625 7.765625 10.832031 7.765625 10.960938 7.894531 C 11.085938 8.019531 11.085938 8.226562 10.960938 8.351562 L 4.273438 15.03125 C 4.140625 15.167969 4.140625 15.390625 4.273438 15.53125 L 8.109375 19.363281 L 12.375 19.363281 L 22.601562 9.136719 C 22.738281 9 22.738281 8.78125 22.601562 8.640625 L 16.890625 2.921875 C 16.75 2.789062 16.53125 2.789062 16.390625 2.921875 L 14.839844 4.472656 C 14.714844 4.597656 14.507812 4.59375 14.382812 4.460938 C 14.257812 4.335938 14.257812 4.140625 14.382812 4.011719 L 15.933594 2.460938 C 16.328125 2.085938 16.949219 2.085938 17.34375 2.460938 L 23.058594 8.179688 C 23.445312 8.570312 23.445312 9.203125 23.058594 9.589844 L 12.734375 19.914062 C 12.675781 19.972656 12.589844 20.007812 12.507812 20.007812 Z M 12.507812 20.007812 "/>
<path style=" stroke:none;fill-rule:nonzero;fill:rgb(9.803922%,66.666667%,97.254902%);fill-opacity:1;" d="M 12.332031 6.839844 C 12.15625 6.839844 12.007812 6.695312 12.007812 6.515625 C 12.007812 6.429688 12.042969 6.347656 12.101562 6.285156 L 12.773438 5.617188 C 12.898438 5.488281 13.105469 5.488281 13.234375 5.617188 C 13.359375 5.742188 13.359375 5.949219 13.234375 6.074219 L 12.5625 6.746094 C 12.5 6.804688 12.421875 6.839844 12.332031 6.839844 Z M 12.332031 6.839844 "/>
<path style=" stroke:none;fill-rule:nonzero;fill:rgb(9.803922%,66.666667%,97.254902%);fill-opacity:1;" d="M 15.207031 17.304688 C 15.121094 17.304688 15.039062 17.273438 14.976562 17.210938 L 8.304688 10.542969 C 8.179688 10.414062 8.175781 10.214844 8.296875 10.082031 C 8.421875 9.957031 8.625 9.953125 8.757812 10.074219 C 8.761719 10.078125 8.761719 10.078125 8.765625 10.082031 L 15.4375 16.753906 C 15.5625 16.878906 15.5625 17.085938 15.4375 17.210938 C 15.375 17.269531 15.296875 17.304688 15.207031 17.304688 Z M 15.207031 17.304688 "/>
<path style=" stroke:none;fill-rule:nonzero;fill:rgb(9.803922%,66.666667%,97.254902%);fill-opacity:1;" d="M 5.550781 20.007812 L 2.515625 20.007812 C 2.339844 20.007812 2.195312 19.859375 2.195312 19.683594 C 2.195312 19.503906 2.339844 19.359375 2.515625 19.359375 L 5.550781 19.359375 C 5.726562 19.359375 5.875 19.503906 5.875 19.683594 C 5.875 19.859375 5.726562 20.007812 5.550781 20.007812 Z M 5.550781 20.007812 "/>
<path style=" stroke:none;fill-rule:nonzero;fill:rgb(9.803922%,66.666667%,97.254902%);fill-opacity:1;" d="M 5.691406 21.835938 L 0.976562 21.835938 C 0.796875 21.835938 0.652344 21.6875 0.652344 21.511719 C 0.652344 21.332031 0.796875 21.1875 0.976562 21.1875 L 5.691406 21.1875 C 5.867188 21.1875 6.015625 21.332031 6.015625 21.511719 C 6.015625 21.6875 5.867188 21.835938 5.691406 21.835938 Z M 5.691406 21.835938 "/>
<path style=" stroke:none;fill-rule:nonzero;fill:rgb(9.803922%,66.666667%,97.254902%);fill-opacity:1;" d="M 11.25 21.835938 L 7.878906 21.835938 C 7.703125 21.835938 7.554688 21.6875 7.554688 21.511719 C 7.554688 21.332031 7.703125 21.1875 7.878906 21.1875 L 11.25 21.1875 C 11.429688 21.1875 11.574219 21.332031 11.574219 21.511719 C 11.574219 21.6875 11.429688 21.835938 11.25 21.835938 Z M 11.25 21.835938 "/>
</g>
</svg>
