<?xml version="1.0" encoding="UTF-8"?>
<svg xmlns="http://www.w3.org/2000/svg" xmlns:xlink="http://www.w3.org/1999/xlink" width="24pt" height="24pt" viewBox="0 0 24 24" version="1.1">
<g id="surface1">
<path style=" stroke:none;fill-rule:nonzero;fill:rgb(9.803922%,66.666667%,97.254902%);fill-opacity:1;" d="M 20.25 4.6875 C 19.992188 4.6875 19.78125 4.898438 19.78125 5.15625 C 19.78125 5.414062 19.992188 5.625 20.25 5.625 C 20.507812 5.625 20.71875 5.414062 20.71875 5.15625 C 20.71875 4.898438 20.507812 4.6875 20.25 4.6875 Z M 20.25 4.6875 "/>
<path style=" stroke:none;fill-rule:nonzero;fill:rgb(9.803922%,66.666667%,97.254902%);fill-opacity:1;" d="M 3.75 4.6875 C 3.492188 4.6875 3.28125 4.898438 3.28125 5.15625 C 3.28125 5.414062 3.492188 5.625 3.75 5.625 C 4.007812 5.625 4.21875 5.414062 4.21875 5.15625 C 4.21875 4.898438 4.007812 4.6875 3.75 4.6875 Z M 3.75 4.6875 "/>
<path style=" stroke:none;fill-rule:nonzero;fill:rgb(9.803922%,66.666667%,97.254902%);fill-opacity:1;" d="M 23.53125 10.3125 L 22.96875 10.3125 C 22.796875 8.960938 22.367188 7.671875 21.707031 6.484375 C 21.582031 6.257812 21.296875 6.171875 21.070312 6.300781 C 20.84375 6.425781 20.761719 6.710938 20.886719 6.9375 C 21.472656 7.992188 21.851562 9.121094 22.027344 10.3125 L 21.65625 10.3125 C 21.398438 10.3125 21.1875 10.523438 21.1875 10.78125 L 21.1875 12.65625 C 21.1875 12.914062 21.398438 13.125 21.65625 13.125 L 23.53125 13.125 C 23.789062 13.125 24 12.914062 24 12.65625 L 24 10.78125 C 24 10.523438 23.789062 10.3125 23.53125 10.3125 Z M 23.0625 12.1875 L 22.125 12.1875 L 22.125 11.25 L 23.0625 11.25 Z M 23.0625 12.1875 "/>
<path style=" stroke:none;fill-rule:nonzero;fill:rgb(9.803922%,66.666667%,97.254902%);fill-opacity:1;" d="M 17.15625 13.714844 C 17.15625 13.707031 17.15625 13.703125 17.15625 13.691406 C 17.15625 13.683594 17.15625 13.671875 17.152344 13.664062 C 17.152344 13.660156 17.152344 13.648438 17.148438 13.644531 C 17.148438 13.636719 17.140625 13.621094 17.136719 13.613281 C 17.136719 13.609375 17.136719 13.601562 17.132812 13.597656 C 17.128906 13.585938 17.125 13.570312 17.117188 13.554688 C 17.117188 13.554688 17.117188 13.550781 17.117188 13.550781 C 17.113281 13.539062 17.105469 13.519531 17.09375 13.503906 L 12.40625 4.925781 C 12.324219 4.777344 12.167969 4.683594 11.996094 4.683594 C 11.820312 4.683594 11.667969 4.777344 11.582031 4.925781 L 6.894531 13.503906 C 6.886719 13.519531 6.882812 13.53125 6.871094 13.550781 C 6.871094 13.550781 6.871094 13.554688 6.871094 13.554688 C 6.867188 13.570312 6.863281 13.585938 6.859375 13.597656 C 6.859375 13.601562 6.859375 13.609375 6.851562 13.613281 C 6.847656 13.621094 6.847656 13.636719 6.84375 13.644531 C 6.84375 13.648438 6.84375 13.660156 6.839844 13.664062 C 6.839844 13.671875 6.835938 13.683594 6.835938 13.691406 C 6.835938 13.703125 6.835938 13.707031 6.835938 13.714844 C 6.835938 13.71875 6.835938 13.730469 6.835938 13.734375 C 6.835938 13.738281 6.835938 13.738281 6.835938 13.742188 C 6.835938 13.753906 6.835938 13.757812 6.835938 13.765625 C 6.835938 13.777344 6.835938 13.785156 6.839844 13.796875 C 6.839844 13.800781 6.839844 13.808594 6.84375 13.8125 C 6.84375 13.824219 6.847656 13.832031 6.847656 13.84375 C 6.847656 13.847656 6.851562 13.851562 6.851562 13.859375 C 6.859375 13.871094 6.859375 13.882812 6.863281 13.894531 C 6.863281 13.898438 6.863281 13.898438 6.867188 13.902344 L 8.558594 18.382812 C 8.421875 18.449219 8.296875 18.539062 8.1875 18.652344 C 7.921875 18.917969 7.777344 19.269531 7.777344 19.644531 C 7.777344 20.253906 8.171875 20.78125 8.714844 20.972656 L 8.714844 23.53125 C 8.714844 23.789062 8.925781 24 9.183594 24 L 14.808594 24 C 15.066406 24 15.277344 23.789062 15.277344 23.53125 L 15.277344 20.96875 C 15.472656 20.898438 15.652344 20.785156 15.800781 20.632812 C 16.070312 20.367188 16.214844 20.015625 16.214844 19.640625 C 16.214844 19.085938 15.894531 18.609375 15.429688 18.378906 L 17.125 13.898438 C 17.125 13.894531 17.125 13.894531 17.128906 13.890625 C 17.132812 13.878906 17.132812 13.871094 17.136719 13.855469 C 17.136719 13.851562 17.140625 13.847656 17.140625 13.835938 C 17.140625 13.828125 17.148438 13.820312 17.148438 13.808594 C 17.148438 13.804688 17.148438 13.796875 17.152344 13.789062 C 17.152344 13.78125 17.152344 13.773438 17.15625 13.761719 C 17.15625 13.753906 17.15625 13.75 17.15625 13.738281 C 17.15625 13.734375 17.15625 13.734375 17.15625 13.730469 C 17.15625 13.730469 17.15625 13.71875 17.15625 13.714844 Z M 12 13.265625 C 12.257812 13.265625 12.46875 13.476562 12.46875 13.734375 C 12.46875 13.992188 12.257812 14.203125 12 14.203125 C 11.742188 14.203125 11.53125 13.992188 11.53125 13.734375 C 11.53125 13.476562 11.742188 13.265625 12 13.265625 Z M 14.34375 23.0625 L 9.65625 23.0625 L 9.65625 21.046875 L 14.34375 21.046875 Z M 15.144531 19.972656 C 15.054688 20.0625 14.9375 20.109375 14.8125 20.109375 L 9.1875 20.109375 C 8.929688 20.109375 8.71875 19.898438 8.71875 19.640625 C 8.71875 19.515625 8.765625 19.398438 8.855469 19.308594 C 8.945312 19.21875 9.0625 19.171875 9.1875 19.171875 L 14.808594 19.171875 C 14.808594 19.171875 14.808594 19.171875 14.8125 19.171875 C 15.070312 19.171875 15.28125 19.382812 15.28125 19.640625 C 15.28125 19.765625 15.234375 19.882812 15.144531 19.972656 Z M 14.488281 18.234375 L 9.511719 18.234375 L 7.988281 14.203125 L 9.1875 14.203125 C 9.445312 14.203125 9.65625 13.992188 9.65625 13.734375 C 9.65625 13.476562 9.445312 13.265625 9.1875 13.265625 L 8.105469 13.265625 L 11.53125 6.992188 L 11.53125 12.414062 C 10.988281 12.605469 10.59375 13.125 10.59375 13.738281 C 10.59375 14.511719 11.226562 15.144531 12 15.144531 C 12.773438 15.144531 13.40625 14.511719 13.40625 13.738281 C 13.40625 13.128906 13.011719 12.605469 12.46875 12.414062 L 12.46875 6.992188 L 15.894531 13.265625 L 14.8125 13.265625 C 14.554688 13.265625 14.34375 13.476562 14.34375 13.734375 C 14.34375 13.992188 14.554688 14.203125 14.8125 14.203125 L 16.007812 14.203125 Z M 14.488281 18.234375 "/>
<path style=" stroke:none;fill-rule:nonzero;fill:rgb(9.803922%,66.666667%,97.254902%);fill-opacity:1;" d="M 2.929688 6.300781 C 2.703125 6.171875 2.417969 6.253906 2.292969 6.484375 C 1.625 7.671875 1.203125 8.960938 1.03125 10.3125 L 0.46875 10.3125 C 0.210938 10.3125 0 10.523438 0 10.78125 L 0 12.65625 C 0 12.914062 0.210938 13.125 0.46875 13.125 L 2.34375 13.125 C 2.601562 13.125 2.8125 12.914062 2.8125 12.65625 L 2.8125 10.78125 C 2.8125 10.523438 2.601562 10.3125 2.34375 10.3125 L 1.972656 10.3125 C 2.140625 9.125 2.523438 7.992188 3.113281 6.9375 C 3.238281 6.710938 3.15625 6.425781 2.929688 6.300781 Z M 1.875 12.1875 L 0.9375 12.1875 L 0.9375 11.25 L 1.875 11.25 Z M 1.875 12.1875 "/>
<path style=" stroke:none;fill-rule:nonzero;fill:rgb(9.803922%,66.666667%,97.254902%);fill-opacity:1;" d="M 22.59375 0 C 21.984375 0 21.460938 0.394531 21.265625 0.9375 L 13.40625 0.9375 L 13.40625 0.46875 C 13.40625 0.210938 13.195312 0 12.9375 0 L 11.0625 0 C 10.804688 0 10.59375 0.210938 10.59375 0.46875 L 10.59375 0.9375 L 2.734375 0.9375 C 2.539062 0.394531 2.015625 0 1.40625 0 C 0.632812 0 0 0.632812 0 1.40625 C 0 2.179688 0.632812 2.8125 1.40625 2.8125 C 2.015625 2.8125 2.539062 2.417969 2.734375 1.875 L 7.445312 1.875 C 6.445312 2.292969 5.527344 2.835938 4.773438 3.472656 C 4.574219 3.640625 4.546875 3.9375 4.714844 4.132812 C 4.808594 4.242188 4.941406 4.304688 5.078125 4.304688 C 5.183594 4.304688 5.292969 4.265625 5.375 4.191406 C 6.722656 3.054688 8.640625 2.246094 10.59375 1.972656 L 10.59375 2.34375 C 10.59375 2.601562 10.804688 2.8125 11.0625 2.8125 L 12.9375 2.8125 C 13.195312 2.8125 13.40625 2.601562 13.40625 2.34375 L 13.40625 1.972656 C 15.355469 2.246094 17.277344 3.054688 18.625 4.191406 C 18.710938 4.265625 18.820312 4.304688 18.921875 4.304688 C 19.054688 4.304688 19.191406 4.246094 19.28125 4.132812 C 19.449219 3.9375 19.421875 3.640625 19.222656 3.472656 C 18.46875 2.835938 17.550781 2.292969 16.550781 1.875 L 21.261719 1.875 C 21.453125 2.417969 21.976562 2.8125 22.589844 2.8125 C 23.363281 2.8125 23.996094 2.179688 23.996094 1.40625 C 23.996094 0.632812 23.367188 0 22.59375 0 Z M 1.40625 1.875 C 1.148438 1.875 0.9375 1.664062 0.9375 1.40625 C 0.9375 1.148438 1.148438 0.9375 1.40625 0.9375 C 1.664062 0.9375 1.875 1.148438 1.875 1.40625 C 1.875 1.664062 1.664062 1.875 1.40625 1.875 Z M 12.46875 1.40625 L 12.46875 1.875 L 11.53125 1.875 L 11.53125 0.9375 L 12.46875 0.9375 Z M 22.59375 1.875 C 22.335938 1.875 22.125 1.664062 22.125 1.40625 C 22.125 1.148438 22.335938 0.9375 22.59375 0.9375 C 22.851562 0.9375 23.0625 1.148438 23.0625 1.40625 C 23.0625 1.664062 22.851562 1.875 22.59375 1.875 Z M 22.59375 1.875 "/>
</g>
</svg>
