<?xml version="1.0" encoding="UTF-8"?>
<svg xmlns="http://www.w3.org/2000/svg" xmlns:xlink="http://www.w3.org/1999/xlink" width="24pt" height="24pt" viewBox="0 0 24 24" version="1.1">
<g id="surface1">
<path style=" stroke:none;fill-rule:nonzero;fill:rgb(99.607843%,49.019608%,26.27451%);fill-opacity:1;" d="M 22.199219 8.628906 L 20.960938 7.523438 L 18.433594 8.492188 L 18.09375 9.910156 L 16.773438 15.902344 L 21.058594 17.769531 L 21.589844 17.082031 C 22.324219 15.578125 22.738281 13.882812 22.738281 12.097656 C 22.738281 10.886719 22.546875 9.722656 22.199219 8.628906 Z M 22.199219 8.628906 "/>
<path style=" stroke:none;fill-rule:nonzero;fill:rgb(93.333333%,38.039216%,38.039216%);fill-opacity:1;" d="M 17.785156 15.175781 L 16.28125 15.902344 L 12.414062 18.625 L 14.136719 22.472656 L 15.367188 22.777344 C 18.117188 21.753906 20.332031 19.667969 21.605469 17.050781 Z M 17.785156 15.175781 "/>
<path style=" stroke:none;fill-rule:nonzero;fill:rgb(76.078431%,63.137255%,83.529412%);fill-opacity:1;" d="M 13.894531 18.734375 L 13.074219 18.160156 L 8.167969 17.414062 L 5.8125 21.203125 L 6.894531 22.566406 C 8.277344 23.160156 9.796875 23.492188 11.394531 23.492188 C 12.792969 23.492188 14.128906 23.238281 15.367188 22.777344 Z M 13.894531 18.734375 "/>
<path style=" stroke:none;fill-rule:nonzero;fill:rgb(54.117647%,78.823529%,99.607843%);fill-opacity:1;" d="M 8.394531 17.320312 L 5.667969 13.035156 L 0.910156 14.507812 L 0.910156 16.570312 C 2.058594 19.257812 4.210938 21.414062 6.894531 22.566406 L 8.621094 18.625 Z M 8.394531 17.320312 "/>
<path style=" stroke:none;fill-rule:nonzero;fill:rgb(45.882353%,80.392157%,83.529412%);fill-opacity:1;" d="M 2.015625 6.664062 L 0.722656 8.097656 C 0.253906 9.34375 0 10.691406 0 12.097656 C 0 13.683594 0.324219 15.195312 0.910156 16.570312 L 4.878906 14.90625 L 5.398438 13.714844 L 5.710938 7.851562 Z M 2.015625 6.664062 "/>
<path style=" stroke:none;fill-rule:nonzero;fill:rgb(42.352941%,96.078431%,76.078431%);fill-opacity:1;" d="M 8.726562 1.835938 L 6.433594 1.835938 C 3.8125 3.105469 1.75 5.351562 0.722656 8.097656 L 4.742188 9.632812 L 7.367188 8.304688 L 10.84375 5.179688 Z M 8.726562 1.835938 "/>
<path style=" stroke:none;fill-rule:nonzero;fill:rgb(99.215686%,41.176471%,18.823529%);fill-opacity:1;" d="M 18.140625 9.910156 L 17.933594 8.976562 L 15.339844 9.632812 L 15.199219 10.832031 C 15.332031 11.226562 15.402344 11.65625 15.402344 12.097656 C 15.402344 12.707031 15.265625 13.289062 15.019531 13.808594 L 15.078125 14.761719 L 16.773438 15.664062 L 17.785156 15.175781 C 18.234375 14.242188 18.484375 13.199219 18.484375 12.097656 C 18.484375 11.335938 18.363281 10.601562 18.140625 9.910156 Z M 18.140625 9.910156 "/>
<path style=" stroke:none;fill-rule:nonzero;fill:rgb(91.372549%,26.666667%,26.666667%);fill-opacity:1;" d="M 15.019531 13.808594 C 14.582031 14.734375 13.800781 15.464844 12.835938 15.839844 L 12.46875 16.535156 L 13.238281 18.507812 L 13.894531 18.734375 C 15.601562 18.09375 16.996094 16.808594 17.785156 15.175781 Z M 15.019531 13.808594 "/>
<path style=" stroke:none;fill-rule:nonzero;fill:rgb(63.529412%,45.490196%,74.901961%);fill-opacity:1;" d="M 12.835938 15.839844 C 12.390625 16.011719 11.902344 16.105469 11.394531 16.105469 C 10.847656 16.105469 10.328125 15.996094 9.855469 15.800781 L 9.046875 15.886719 L 8.085938 17.851562 L 8.621094 18.625 C 9.472656 18.988281 10.410156 19.1875 11.394531 19.1875 C 12.273438 19.1875 13.117188 19.027344 13.894531 18.734375 Z M 12.835938 15.839844 "/>
<path style=" stroke:none;fill-rule:nonzero;fill:rgb(14.901961%,65.098039%,99.607843%);fill-opacity:1;" d="M 7.722656 13.714844 L 7.089844 13.257812 L 5.023438 13.972656 L 4.878906 14.90625 C 5.601562 16.578125 6.945312 17.914062 8.621094 18.625 L 9.855469 15.800781 C 8.90625 15.40625 8.140625 14.65625 7.722656 13.714844 Z M 7.722656 13.714844 "/>
<path style=" stroke:none;fill-rule:nonzero;fill:rgb(99.607843%,91.372549%,49.019608%);fill-opacity:1;" d="M 16.855469 2.097656 C 15.234375 1.207031 13.371094 0.703125 11.394531 0.703125 C 9.613281 0.703125 7.933594 1.109375 6.433594 1.835938 L 8.28125 5.722656 L 10.117188 6.546875 L 15.890625 7.523438 L 17.570312 3.957031 Z M 16.855469 2.097656 "/>
<path style=" stroke:none;fill-rule:nonzero;fill:rgb(99.607843%,75.686275%,39.607843%);fill-opacity:1;" d="M 23.984375 7.75 C 24.039062 7.914062 23.949219 8.09375 23.78125 8.144531 L 22.226562 8.628906 L 19.285156 9.550781 C 18.625 7.503906 17.195312 5.804688 15.339844 4.792969 L 16.835938 2.097656 L 17.625 0.667969 C 17.710938 0.519531 17.902344 0.464844 18.050781 0.550781 C 20.800781 2.148438 22.929688 4.699219 23.984375 7.75 Z M 23.984375 7.75 "/>
<path style=" stroke:none;fill-rule:nonzero;fill:rgb(16.470588%,73.72549%,78.431373%);fill-opacity:1;" d="M 7.382812 12.097656 C 7.382812 11.617188 7.46875 11.160156 7.621094 10.734375 L 7.585938 9.0625 L 5.867188 9.0625 L 4.742188 9.632812 C 4.457031 10.402344 4.300781 11.230469 4.300781 12.097656 C 4.300781 13.09375 4.507812 14.046875 4.878906 14.90625 L 7.722656 13.714844 C 7.503906 13.21875 7.382812 12.671875 7.382812 12.097656 Z M 7.382812 12.097656 "/>
<path style=" stroke:none;fill-rule:nonzero;fill:rgb(0%,94.901961%,65.098039%);fill-opacity:1;" d="M 9.71875 6.1875 L 8.28125 5.722656 C 6.652344 6.519531 5.375 7.917969 4.742188 9.632812 L 7.621094 10.734375 C 7.972656 9.761719 8.6875 8.964844 9.605469 8.507812 L 10.265625 7.765625 Z M 9.71875 6.1875 "/>
<path style=" stroke:none;fill-rule:nonzero;fill:rgb(99.607843%,87.45098%,18.823529%);fill-opacity:1;" d="M 14.769531 5.855469 C 13.765625 5.3125 12.617188 5.003906 11.394531 5.003906 C 10.277344 5.003906 9.21875 5.261719 8.28125 5.722656 L 9.605469 8.507812 C 10.144531 8.238281 10.75 8.085938 11.394531 8.085938 C 12.074219 8.085938 12.710938 8.257812 13.273438 8.554688 L 14.28125 8.605469 L 15.269531 7.289062 Z M 14.769531 5.855469 "/>
<path style=" stroke:none;fill-rule:nonzero;fill:rgb(99.215686%,70.588235%,25.490196%);fill-opacity:1;" d="M 19.285156 9.550781 L 18.121094 9.910156 L 15.199219 10.832031 C 14.871094 9.847656 14.160156 9.023438 13.257812 8.546875 L 14.746094 5.855469 L 15.339844 4.792969 C 17.195312 5.804688 18.625 7.503906 19.285156 9.550781 Z M 19.285156 9.550781 "/>
</g>
</svg>
