<?xml version="1.0" encoding="UTF-8"?>
<svg xmlns="http://www.w3.org/2000/svg" xmlns:xlink="http://www.w3.org/1999/xlink" width="24pt" height="24pt" viewBox="0 0 24 24" version="1.1">
<g id="surface1">
<path style=" stroke:none;fill-rule:nonzero;fill:rgb(9.803922%,66.666667%,97.254902%);fill-opacity:1;" d="M 18.632812 6.242188 C 18.453125 5.609375 17.996094 5.101562 17.375 4.847656 C 17.375 4.847656 17.371094 4.847656 17.371094 4.84375 L 14.9375 3.910156 C 14.746094 3.835938 14.621094 3.652344 14.621094 3.445312 L 14.621094 2.039062 C 14.625 2.019531 14.625 2.007812 14.625 1.988281 L 14.625 1.84375 C 14.625 0.828125 13.796875 0 12.773438 0 L 11.226562 0 C 10.203125 0 9.375 0.828125 9.375 1.851562 L 9.375 1.996094 C 9.375 2.015625 9.375 2.03125 9.378906 2.046875 L 9.378906 3.453125 C 9.378906 3.660156 9.253906 3.84375 9.0625 3.917969 L 8.242188 4.234375 C 8.058594 4.304688 7.96875 4.503906 8.039062 4.6875 C 8.089844 4.828125 8.226562 4.914062 8.367188 4.914062 C 8.410156 4.914062 8.453125 4.902344 8.492188 4.890625 L 9.3125 4.574219 C 9.773438 4.398438 10.082031 3.945312 10.082031 3.453125 L 10.082031 2.34375 L 13.914062 2.34375 L 13.914062 3.445312 C 13.914062 3.9375 14.222656 4.390625 14.679688 4.566406 L 17.109375 5.5 C 17.527344 5.667969 17.832031 6.007812 17.949219 6.429688 C 18.0625 6.839844 17.980469 7.269531 17.726562 7.613281 C 17.304688 8.175781 16.867188 8.785156 16.503906 9.394531 C 16.40625 9.5625 16.460938 9.777344 16.625 9.875 C 16.683594 9.910156 16.742188 9.929688 16.804688 9.929688 C 16.925781 9.929688 17.042969 9.867188 17.109375 9.753906 C 17.457031 9.171875 17.882812 8.585938 18.289062 8.039062 C 18.683594 7.515625 18.804688 6.863281 18.632812 6.242188 Z M 10.101562 1.640625 C 10.199219 1.109375 10.667969 0.703125 11.226562 0.703125 L 12.773438 0.703125 C 13.332031 0.703125 13.800781 1.105469 13.898438 1.640625 Z M 10.101562 1.640625 "/>
<path style=" stroke:none;fill-rule:nonzero;fill:rgb(9.803922%,66.666667%,97.254902%);fill-opacity:1;" d="M 8.433594 11.757812 C 8.136719 10.210938 7.273438 8.96875 6.265625 7.613281 C 6.015625 7.269531 5.929688 6.839844 6.046875 6.429688 C 6.164062 6.007812 6.472656 5.671875 6.886719 5.5 L 7.175781 5.386719 C 7.359375 5.316406 7.449219 5.113281 7.378906 4.929688 C 7.308594 4.75 7.105469 4.660156 6.921875 4.730469 L 6.628906 4.84375 C 6.628906 4.84375 6.625 4.84375 6.625 4.847656 C 6 5.101562 5.539062 5.605469 5.367188 6.242188 C 5.195312 6.863281 5.316406 7.515625 5.703125 8.035156 C 6.660156 9.3125 7.476562 10.492188 7.742188 11.886719 C 8.007812 13.25 7.664062 13.75 7.046875 14.652344 C 6.792969 15.023438 6.5 15.445312 6.203125 16.003906 C 6.109375 16.171875 6.171875 16.386719 6.34375 16.480469 C 6.394531 16.507812 6.453125 16.523438 6.511719 16.523438 C 6.636719 16.523438 6.757812 16.457031 6.820312 16.339844 C 7.101562 15.816406 7.382812 15.414062 7.625 15.054688 C 8.277344 14.09375 8.75 13.40625 8.433594 11.757812 Z M 8.433594 11.757812 "/>
<path style=" stroke:none;fill-rule:nonzero;fill:rgb(9.803922%,66.666667%,97.254902%);fill-opacity:1;" d="M 18.125 16.660156 C 17.714844 15.757812 17.292969 15.144531 16.953125 14.652344 C 16.335938 13.75 15.992188 13.25 16.257812 11.886719 C 16.3125 11.582031 16.398438 11.292969 16.507812 10.988281 C 16.574219 10.804688 16.484375 10.601562 16.304688 10.53125 C 16.121094 10.46875 15.917969 10.554688 15.847656 10.738281 C 15.722656 11.078125 15.628906 11.410156 15.5625 11.75 C 15.242188 13.402344 15.71875 14.089844 16.367188 15.046875 C 16.707031 15.542969 17.089844 16.105469 17.480469 16.949219 C 17.949219 17.972656 17.980469 19.035156 17.925781 19.742188 C 17.898438 20.082031 17.597656 20.347656 17.246094 20.347656 L 6.75 20.347656 C 6.394531 20.347656 6.097656 20.085938 6.070312 19.742188 C 6.027344 19.210938 6.027344 18.398438 6.28125 17.558594 C 6.335938 17.371094 6.234375 17.175781 6.046875 17.117188 C 5.859375 17.0625 5.664062 17.164062 5.605469 17.351562 C 5.320312 18.296875 5.320312 19.199219 5.367188 19.796875 C 5.421875 20.5 6.03125 21.046875 6.75 21.046875 L 10.648438 21.046875 L 10.648438 23.640625 C 10.648438 23.832031 10.808594 23.992188 11 23.992188 L 13.003906 23.992188 C 13.195312 23.992188 13.355469 23.832031 13.355469 23.640625 L 13.355469 21.046875 L 17.25 21.046875 C 17.96875 21.046875 18.578125 20.5 18.632812 19.796875 C 18.699219 19.007812 18.660156 17.816406 18.125 16.660156 Z M 12.648438 23.296875 L 11.347656 23.296875 L 11.347656 21.054688 L 12.648438 21.054688 Z M 12.648438 23.296875 "/>
</g>
</svg>
