<?xml version="1.0" encoding="UTF-8"?>
<svg xmlns="http://www.w3.org/2000/svg" xmlns:xlink="http://www.w3.org/1999/xlink" width="24pt" height="24pt" viewBox="0 0 24 24" version="1.1">
<g id="surface1">
<path style=" stroke:none;fill-rule:nonzero;fill:rgb(9.803922%,66.666667%,97.254902%);fill-opacity:1;" d="M 12 11 C 11.9375 11 11.878906 10.992188 11.820312 10.96875 L 5.320312 8.46875 C 5.128906 8.394531 5 8.210938 5 8 C 5 7.789062 5.128906 7.609375 5.320312 7.53125 L 11.820312 5.035156 C 11.9375 4.992188 12.066406 4.992188 12.183594 5.035156 L 18.683594 7.53125 C 18.875 7.609375 19.003906 7.789062 19.003906 8 C 19.003906 8.210938 18.875 8.394531 18.683594 8.46875 L 12.179688 10.96875 C 12.121094 10.988281 12.0625 11 12 11 Z M 6.894531 8 L 12 9.964844 L 17.105469 8 L 12 6.039062 Z M 6.894531 8 "/>
<path style=" stroke:none;fill-rule:nonzero;fill:rgb(9.803922%,66.666667%,97.254902%);fill-opacity:1;" d="M 12 19 C 11.9375 19 11.878906 18.988281 11.820312 18.964844 L 5.320312 16.46875 C 5.128906 16.390625 5 16.210938 5 16 L 5 8 C 5 7.726562 5.226562 7.5 5.503906 7.5 C 5.78125 7.5 6.003906 7.726562 6.003906 8 L 6.003906 15.65625 L 12.003906 17.960938 L 18 15.65625 L 18 8 C 18 7.726562 18.226562 7.5 18.5 7.5 C 18.777344 7.5 19.003906 7.726562 19.003906 8 L 19.003906 16.003906 C 19.003906 16.210938 18.875 16.398438 18.683594 16.472656 L 12.183594 18.96875 C 12.121094 18.988281 12.0625 19 12 19 Z M 12 19 "/>
<path style=" stroke:none;fill-rule:nonzero;fill:rgb(9.803922%,66.666667%,97.254902%);fill-opacity:1;" d="M 12 19 C 11.722656 19 11.5 18.773438 11.5 18.496094 L 11.5 10.5 C 11.5 10.222656 11.722656 10 12 10 C 12.277344 10 12.5 10.222656 12.5 10.5 L 12.5 18.5 C 12.5 18.777344 12.277344 19 12 19 Z M 12 19 "/>
<path style=" stroke:none;fill-rule:nonzero;fill:rgb(9.803922%,66.666667%,97.254902%);fill-opacity:1;" d="M 0.5 8 C 0.226562 8 0 7.777344 0 7.5 L 0 2.5 C 0 1.121094 1.121094 0 2.5 0 L 7.5 0 C 7.777344 0 8 0.226562 8 0.5 C 8 0.777344 7.777344 1.003906 7.5 1.003906 L 2.5 1.003906 C 1.671875 1.003906 1 1.679688 1 2.503906 L 1 7.5 C 1 7.777344 0.777344 8 0.5 8 Z M 0.5 8 "/>
<path style=" stroke:none;fill-rule:nonzero;fill:rgb(9.803922%,66.666667%,97.254902%);fill-opacity:1;" d="M 21.5 24 L 16.5 24 C 16.222656 24 16 23.773438 16 23.5 C 16 23.222656 16.222656 22.996094 16.5 22.996094 L 21.5 22.996094 C 22.328125 22.996094 23 22.320312 23 21.496094 L 23 16.5 C 23 16.222656 23.226562 16 23.503906 16 C 23.78125 16 24 16.222656 24 16.5 L 24 21.5 C 24 22.878906 22.878906 24 21.5 24 Z M 21.5 24 "/>
<path style=" stroke:none;fill-rule:nonzero;fill:rgb(9.803922%,66.666667%,97.254902%);fill-opacity:1;" d="M 23.5 8 C 23.222656 8 22.996094 7.777344 22.996094 7.5 L 22.996094 2.5 C 22.996094 1.671875 22.320312 1 21.496094 1 L 16.5 1 C 16.222656 1 16 0.773438 16 0.496094 C 16 0.21875 16.222656 0 16.5 0 L 21.5 0 C 22.878906 0 24 1.121094 24 2.5 L 24 7.5 C 24 7.777344 23.773438 8 23.5 8 Z M 23.5 8 "/>
<path style=" stroke:none;fill-rule:nonzero;fill:rgb(9.803922%,66.666667%,97.254902%);fill-opacity:1;" d="M 7.5 24 L 2.5 24 C 1.121094 24 0 22.878906 0 21.5 L 0 16.5 C 0 16.222656 0.226562 16 0.5 16 C 0.777344 16 1.003906 16.222656 1.003906 16.5 L 1.003906 21.5 C 1.003906 22.328125 1.679688 23 2.503906 23 L 7.5 23 C 7.777344 23 8 23.226562 8 23.503906 C 8 23.78125 7.777344 24 7.5 24 Z M 7.5 24 "/>
</g>
</svg>
