<?xml version="1.0" encoding="UTF-8"?>
<svg xmlns="http://www.w3.org/2000/svg" xmlns:xlink="http://www.w3.org/1999/xlink" width="24pt" height="24pt" viewBox="0 0 24 24" version="1.1">
<g id="surface1">
<path style=" stroke:none;fill-rule:nonzero;fill:rgb(9.803922%,66.666667%,97.254902%);fill-opacity:1;" d="M 21.875 8.886719 L 17.550781 8.886719 L 16.132812 7.890625 L 18.238281 6.367188 C 18.421875 6.234375 18.53125 6.019531 18.53125 5.792969 C 18.53125 5.570312 18.417969 5.351562 18.234375 5.222656 L 12.300781 1.027344 C 12.050781 0.851562 11.722656 0.851562 11.480469 1.035156 L 5.765625 5.230469 C 5.585938 5.363281 5.480469 5.574219 5.480469 5.792969 C 5.480469 6.015625 5.582031 6.226562 5.761719 6.359375 L 7.800781 7.894531 L 6.4375 8.890625 L 2.125 8.890625 C 0.953125 8.886719 0 9.84375 0 11.011719 L 0 20.976562 C 0 22.148438 0.953125 23.101562 2.125 23.101562 L 21.875 23.101562 C 23.046875 23.101562 24 22.148438 24 20.976562 L 24 11.011719 C 24 9.84375 23.046875 8.886719 21.875 8.886719 Z M 11.902344 2.46875 L 16.617188 5.804688 L 11.902344 9.214844 C 10.742188 8.34375 8.503906 6.660156 7.359375 5.804688 Z M 11.46875 10.648438 C 11.597656 10.742188 11.742188 10.789062 11.890625 10.789062 C 12.039062 10.789062 12.183594 10.75 12.304688 10.660156 L 14.929688 8.761719 L 16.617188 9.957031 C 15.4375 10.808594 13.074219 12.519531 11.902344 13.367188 L 7.359375 9.957031 L 8.972656 8.773438 Z M 11.46875 14.804688 C 11.597656 14.898438 11.742188 14.945312 11.890625 14.945312 C 12.039062 14.945312 12.183594 14.902344 12.304688 14.8125 L 14.761719 13.035156 L 16.617188 14.34375 L 11.902344 17.757812 L 7.359375 14.34375 L 9.125 13.046875 Z M 22.59375 20.976562 C 22.59375 21.371094 22.269531 21.695312 21.875 21.695312 L 2.125 21.695312 C 1.730469 21.695312 1.40625 21.371094 1.40625 20.976562 L 1.40625 11.011719 C 1.40625 10.617188 1.730469 10.292969 2.125 10.292969 L 5.570312 10.292969 C 5.617188 10.378906 5.675781 10.449219 5.757812 10.507812 L 7.953125 12.160156 L 5.765625 13.765625 C 5.585938 13.898438 5.480469 14.109375 5.480469 14.328125 C 5.480469 14.550781 5.582031 14.761719 5.761719 14.898438 L 11.476562 19.191406 C 11.601562 19.285156 11.746094 19.332031 11.898438 19.332031 C 12.042969 19.332031 12.1875 19.289062 12.308594 19.199219 L 18.238281 14.90625 C 18.421875 14.773438 18.53125 14.558594 18.53125 14.328125 C 18.53125 14.105469 18.417969 13.890625 18.230469 13.757812 L 15.960938 12.160156 L 18.234375 10.515625 C 18.320312 10.453125 18.382812 10.378906 18.429688 10.292969 L 21.871094 10.292969 C 22.265625 10.292969 22.589844 10.617188 22.589844 11.011719 Z M 22.59375 20.976562 "/>
<path style=" stroke:none;fill-rule:nonzero;fill:rgb(9.803922%,66.666667%,97.254902%);fill-opacity:1;" d="M 3.511719 15.273438 C 3.121094 15.273438 2.804688 15.589844 2.804688 15.980469 C 2.804688 16.367188 3.121094 16.6875 3.511719 16.6875 C 3.898438 16.6875 4.21875 16.367188 4.21875 15.980469 C 4.21875 15.585938 3.898438 15.273438 3.511719 15.273438 Z M 3.511719 15.273438 "/>
<path style=" stroke:none;fill-rule:nonzero;fill:rgb(9.803922%,66.666667%,97.254902%);fill-opacity:1;" d="M 20.523438 14.09375 C 20.132812 14.09375 19.820312 14.410156 19.820312 14.796875 L 19.820312 17.160156 C 19.820312 17.550781 20.132812 17.863281 20.523438 17.863281 C 20.910156 17.863281 21.226562 17.550781 21.226562 17.160156 L 21.226562 14.796875 C 21.226562 14.410156 20.910156 14.09375 20.523438 14.09375 Z M 20.523438 14.09375 "/>
</g>
</svg>
